<mxfile host="Electron" modified="2023-05-16T19:09:48.697Z" agent="Mozilla/5.0 (Windows NT 10.0; Win64; x64) AppleWebKit/537.36 (KHTML, like Gecko) draw.io/21.2.8 Chrome/112.0.5615.165 Electron/24.2.0 Safari/537.36" etag="VzFXugRzCW7gxM0uiBnS" version="21.2.8" type="device">
  <diagram name="Page-1" id="FdBJJFoCs0tDIHWV1xYb">
    <mxGraphModel dx="1050" dy="621" grid="1" gridSize="10" guides="1" tooltips="1" connect="1" arrows="1" fold="1" page="1" pageScale="1" pageWidth="827" pageHeight="1169" math="0" shadow="0">
      <root>
        <mxCell id="0" />
        <mxCell id="1" parent="0" />
        <mxCell id="2Ivm5YJjxfY_jZ8BfFTa-1" style="edgeStyle=orthogonalEdgeStyle;rounded=0;orthogonalLoop=1;jettySize=auto;html=1;exitX=1;exitY=0.5;exitDx=0;exitDy=0;entryX=0.5;entryY=0;entryDx=0;entryDy=0;" parent="1" source="2Ivm5YJjxfY_jZ8BfFTa-2" target="2Ivm5YJjxfY_jZ8BfFTa-5" edge="1">
          <mxGeometry relative="1" as="geometry" />
        </mxCell>
        <mxCell id="2Ivm5YJjxfY_jZ8BfFTa-2" value="IDLE" style="ellipse;whiteSpace=wrap;html=1;" parent="1" vertex="1">
          <mxGeometry x="270" y="80" width="120" height="80" as="geometry" />
        </mxCell>
        <mxCell id="2Ivm5YJjxfY_jZ8BfFTa-3" style="edgeStyle=orthogonalEdgeStyle;rounded=0;orthogonalLoop=1;jettySize=auto;html=1;exitX=1;exitY=1;exitDx=0;exitDy=0;entryX=0.5;entryY=0;entryDx=0;entryDy=0;" parent="1" source="2Ivm5YJjxfY_jZ8BfFTa-5" target="2Ivm5YJjxfY_jZ8BfFTa-8" edge="1">
          <mxGeometry relative="1" as="geometry" />
        </mxCell>
        <mxCell id="2Ivm5YJjxfY_jZ8BfFTa-4" style="edgeStyle=orthogonalEdgeStyle;rounded=0;orthogonalLoop=1;jettySize=auto;html=1;exitX=0;exitY=1;exitDx=0;exitDy=0;entryX=0;entryY=0.5;entryDx=0;entryDy=0;" parent="1" source="2Ivm5YJjxfY_jZ8BfFTa-5" target="2Ivm5YJjxfY_jZ8BfFTa-16" edge="1">
          <mxGeometry relative="1" as="geometry" />
        </mxCell>
        <mxCell id="2Ivm5YJjxfY_jZ8BfFTa-5" value="GET X SAMPLE&lt;br&gt;get_new_x_d_sample &amp;lt;= 1&lt;br&gt;reset_x_vals &amp;lt;= reset_x_fifo &amp;amp;&amp;amp; first_iter" style="ellipse;whiteSpace=wrap;html=1;" parent="1" vertex="1">
          <mxGeometry x="440" y="200" width="180" height="80" as="geometry" />
        </mxCell>
        <mxCell id="2Ivm5YJjxfY_jZ8BfFTa-6" value="start = 1" style="text;html=1;align=center;verticalAlign=middle;resizable=0;points=[];autosize=1;strokeColor=none;fillColor=none;" parent="1" vertex="1">
          <mxGeometry x="415" y="85" width="70" height="30" as="geometry" />
        </mxCell>
        <mxCell id="2Ivm5YJjxfY_jZ8BfFTa-7" style="edgeStyle=orthogonalEdgeStyle;rounded=0;orthogonalLoop=1;jettySize=auto;html=1;exitX=0.5;exitY=1;exitDx=0;exitDy=0;" parent="1" source="2Ivm5YJjxfY_jZ8BfFTa-8" target="2Ivm5YJjxfY_jZ8BfFTa-16" edge="1">
          <mxGeometry relative="1" as="geometry" />
        </mxCell>
        <mxCell id="2Ivm5YJjxfY_jZ8BfFTa-8" value="UPDATE X SUM OF SQUARES&lt;br&gt;update_x_sum_of_squares &amp;lt;= 1" style="ellipse;whiteSpace=wrap;html=1;" parent="1" vertex="1">
          <mxGeometry x="525" y="360" width="180" height="80" as="geometry" />
        </mxCell>
        <mxCell id="2Ivm5YJjxfY_jZ8BfFTa-9" value="" style="curved=1;endArrow=classic;html=1;rounded=0;exitX=1;exitY=0;exitDx=0;exitDy=0;entryX=0;entryY=0;entryDx=0;entryDy=0;" parent="1" source="2Ivm5YJjxfY_jZ8BfFTa-2" target="2Ivm5YJjxfY_jZ8BfFTa-2" edge="1">
          <mxGeometry width="50" height="50" relative="1" as="geometry">
            <mxPoint x="365" y="70" as="sourcePoint" />
            <mxPoint x="415" y="20" as="targetPoint" />
            <Array as="points">
              <mxPoint x="415" y="70" />
              <mxPoint x="365" y="20" />
              <mxPoint x="280" y="50" />
            </Array>
          </mxGeometry>
        </mxCell>
        <mxCell id="2Ivm5YJjxfY_jZ8BfFTa-10" value="start = 0" style="text;html=1;align=center;verticalAlign=middle;resizable=0;points=[];autosize=1;strokeColor=none;fillColor=none;" parent="1" vertex="1">
          <mxGeometry x="320" width="70" height="30" as="geometry" />
        </mxCell>
        <mxCell id="2Ivm5YJjxfY_jZ8BfFTa-11" value="" style="curved=1;endArrow=classic;html=1;rounded=0;exitX=0.998;exitY=0.69;exitDx=0;exitDy=0;exitPerimeter=0;entryX=0.667;entryY=0;entryDx=0;entryDy=0;entryPerimeter=0;" parent="1" source="2Ivm5YJjxfY_jZ8BfFTa-5" target="2Ivm5YJjxfY_jZ8BfFTa-5" edge="1">
          <mxGeometry width="50" height="50" relative="1" as="geometry">
            <mxPoint x="680" y="230" as="sourcePoint" />
            <mxPoint x="730" y="180" as="targetPoint" />
            <Array as="points">
              <mxPoint x="710" y="240" />
              <mxPoint x="610" y="150" />
            </Array>
          </mxGeometry>
        </mxCell>
        <mxCell id="2Ivm5YJjxfY_jZ8BfFTa-12" value="sample_ready = 0" style="text;html=1;align=center;verticalAlign=middle;resizable=0;points=[];autosize=1;strokeColor=none;fillColor=none;" parent="1" vertex="1">
          <mxGeometry x="570" y="145" width="120" height="30" as="geometry" />
        </mxCell>
        <mxCell id="2Ivm5YJjxfY_jZ8BfFTa-13" value="op = nlms &amp;amp;&amp;amp; &lt;br&gt;sample_ready = 1" style="text;html=1;align=center;verticalAlign=middle;resizable=0;points=[];autosize=1;strokeColor=none;fillColor=none;" parent="1" vertex="1">
          <mxGeometry x="590" y="275" width="120" height="40" as="geometry" />
        </mxCell>
        <mxCell id="2Ivm5YJjxfY_jZ8BfFTa-14" style="edgeStyle=orthogonalEdgeStyle;rounded=0;orthogonalLoop=1;jettySize=auto;html=1;exitX=0.5;exitY=1;exitDx=0;exitDy=0;entryX=0.5;entryY=0;entryDx=0;entryDy=0;" parent="1" source="2Ivm5YJjxfY_jZ8BfFTa-16" target="2Ivm5YJjxfY_jZ8BfFTa-23" edge="1">
          <mxGeometry relative="1" as="geometry" />
        </mxCell>
        <mxCell id="2Ivm5YJjxfY_jZ8BfFTa-16" value="START FIR FILTRATION&lt;br&gt;start_fir_filtration &amp;lt;= 1&lt;br&gt;start_outputting_data &amp;lt;= 1" style="ellipse;whiteSpace=wrap;html=1;" parent="1" vertex="1">
          <mxGeometry x="560" y="545" width="210" height="80" as="geometry" />
        </mxCell>
        <mxCell id="2Ivm5YJjxfY_jZ8BfFTa-17" value="" style="curved=1;endArrow=classic;html=1;rounded=0;exitX=0.997;exitY=0.65;exitDx=0;exitDy=0;exitPerimeter=0;entryX=0.694;entryY=0;entryDx=0;entryDy=0;entryPerimeter=0;" parent="1" source="2Ivm5YJjxfY_jZ8BfFTa-8" target="2Ivm5YJjxfY_jZ8BfFTa-8" edge="1">
          <mxGeometry width="50" height="50" relative="1" as="geometry">
            <mxPoint x="740" y="370" as="sourcePoint" />
            <mxPoint x="790" y="320" as="targetPoint" />
            <Array as="points">
              <mxPoint x="760" y="390" />
              <mxPoint x="704" y="330" />
            </Array>
          </mxGeometry>
        </mxCell>
        <mxCell id="2Ivm5YJjxfY_jZ8BfFTa-18" value="x_sum_of_squares_valid = 0" style="text;html=1;align=center;verticalAlign=middle;resizable=0;points=[];autosize=1;strokeColor=none;fillColor=none;" parent="1" vertex="1">
          <mxGeometry x="635" y="320" width="180" height="30" as="geometry" />
        </mxCell>
        <mxCell id="2Ivm5YJjxfY_jZ8BfFTa-19" value="&lt;span style=&quot;color: rgb(0, 0, 0); font-family: Helvetica; font-size: 12px; font-style: normal; font-variant-ligatures: normal; font-variant-caps: normal; font-weight: 400; letter-spacing: normal; orphans: 2; text-align: center; text-indent: 0px; text-transform: none; widows: 2; word-spacing: 0px; -webkit-text-stroke-width: 0px; background-color: rgb(251, 251, 251); text-decoration-thickness: initial; text-decoration-style: initial; text-decoration-color: initial; float: none; display: inline !important;&quot;&gt;x_sum_of_squares_valid = 1&lt;/span&gt;" style="text;whiteSpace=wrap;html=1;" parent="1" vertex="1">
          <mxGeometry x="620" y="470" width="160" height="40" as="geometry" />
        </mxCell>
        <mxCell id="2Ivm5YJjxfY_jZ8BfFTa-20" value="" style="curved=1;endArrow=classic;html=1;rounded=0;exitX=1;exitY=0.5;exitDx=0;exitDy=0;entryX=0.748;entryY=0.04;entryDx=0;entryDy=0;entryPerimeter=0;" parent="1" source="2Ivm5YJjxfY_jZ8BfFTa-16" target="2Ivm5YJjxfY_jZ8BfFTa-16" edge="1">
          <mxGeometry width="50" height="50" relative="1" as="geometry">
            <mxPoint x="810" y="580" as="sourcePoint" />
            <mxPoint x="860" y="530" as="targetPoint" />
            <Array as="points">
              <mxPoint x="860" y="580" />
              <mxPoint x="760" y="500" />
            </Array>
          </mxGeometry>
        </mxCell>
        <mxCell id="2Ivm5YJjxfY_jZ8BfFTa-21" value="out_written = 0" style="text;html=1;align=center;verticalAlign=middle;resizable=0;points=[];autosize=1;strokeColor=none;fillColor=none;" parent="1" vertex="1">
          <mxGeometry x="740" y="495" width="100" height="30" as="geometry" />
        </mxCell>
        <mxCell id="2Ivm5YJjxfY_jZ8BfFTa-22" style="edgeStyle=orthogonalEdgeStyle;rounded=0;orthogonalLoop=1;jettySize=auto;html=1;exitX=0;exitY=0.5;exitDx=0;exitDy=0;entryX=0.5;entryY=1;entryDx=0;entryDy=0;" parent="1" source="2Ivm5YJjxfY_jZ8BfFTa-23" target="2Ivm5YJjxfY_jZ8BfFTa-33" edge="1">
          <mxGeometry relative="1" as="geometry">
            <mxPoint x="340" y="800" as="targetPoint" />
          </mxGeometry>
        </mxCell>
        <mxCell id="2Ivm5YJjxfY_jZ8BfFTa-23" value="CALCULATE ADAPTATION COEF&lt;br&gt;calculate_adaptation_coef &amp;lt;= 1" style="ellipse;whiteSpace=wrap;html=1;" parent="1" vertex="1">
          <mxGeometry x="470" y="720" width="220" height="80" as="geometry" />
        </mxCell>
        <mxCell id="2Ivm5YJjxfY_jZ8BfFTa-24" value="&lt;span style=&quot;color: rgb(0, 0, 0); font-family: Helvetica; font-size: 12px; font-style: normal; font-variant-ligatures: normal; font-variant-caps: normal; font-weight: 400; letter-spacing: normal; orphans: 2; text-align: center; text-indent: 0px; text-transform: none; widows: 2; word-spacing: 0px; -webkit-text-stroke-width: 0px; background-color: rgb(251, 251, 251); text-decoration-thickness: initial; text-decoration-style: initial; text-decoration-color: initial; float: none; display: inline !important;&quot;&gt;out_written = 1 &amp;amp;&amp;amp;&lt;br&gt;operation != fir&lt;br&gt;&lt;/span&gt;" style="text;whiteSpace=wrap;html=1;" parent="1" vertex="1">
          <mxGeometry x="525" y="630" width="140" height="40" as="geometry" />
        </mxCell>
        <mxCell id="2Ivm5YJjxfY_jZ8BfFTa-25" value="(op = fir ||&lt;br&gt;op = lms) &amp;amp;&amp;amp;&lt;br style=&quot;border-color: var(--border-color);&quot;&gt;sample_ready = 1" style="text;html=1;align=center;verticalAlign=middle;resizable=0;points=[];autosize=1;strokeColor=none;fillColor=none;" parent="1" vertex="1">
          <mxGeometry x="354" y="340" width="120" height="60" as="geometry" />
        </mxCell>
        <mxCell id="2Ivm5YJjxfY_jZ8BfFTa-26" value="" style="curved=1;endArrow=classic;html=1;rounded=0;exitX=1;exitY=0.5;exitDx=0;exitDy=0;entryX=0.727;entryY=0;entryDx=0;entryDy=0;entryPerimeter=0;" parent="1" source="2Ivm5YJjxfY_jZ8BfFTa-23" target="2Ivm5YJjxfY_jZ8BfFTa-23" edge="1">
          <mxGeometry width="50" height="50" relative="1" as="geometry">
            <mxPoint x="710" y="770" as="sourcePoint" />
            <mxPoint x="760" y="720" as="targetPoint" />
            <Array as="points">
              <mxPoint x="750" y="740" />
              <mxPoint x="680" y="690" />
            </Array>
          </mxGeometry>
        </mxCell>
        <mxCell id="2Ivm5YJjxfY_jZ8BfFTa-27" value="&lt;span style=&quot;color: rgb(0, 0, 0); font-family: Helvetica; font-size: 12px; font-style: normal; font-variant-ligatures: normal; font-variant-caps: normal; font-weight: 400; letter-spacing: normal; orphans: 2; text-align: center; text-indent: 0px; text-transform: none; widows: 2; word-spacing: 0px; -webkit-text-stroke-width: 0px; background-color: rgb(251, 251, 251); text-decoration-thickness: initial; text-decoration-style: initial; text-decoration-color: initial; float: none; display: inline !important;&quot;&gt;adaptation_coef_ready&amp;nbsp;= 0&lt;/span&gt;" style="text;whiteSpace=wrap;html=1;" parent="1" vertex="1">
          <mxGeometry x="670" y="680" width="150" height="40" as="geometry" />
        </mxCell>
        <mxCell id="2Ivm5YJjxfY_jZ8BfFTa-30" value="&lt;span style=&quot;color: rgb(0, 0, 0); font-family: Helvetica; font-size: 12px; font-style: normal; font-variant-ligatures: normal; font-variant-caps: normal; font-weight: 400; letter-spacing: normal; orphans: 2; text-align: center; text-indent: 0px; text-transform: none; widows: 2; word-spacing: 0px; -webkit-text-stroke-width: 0px; background-color: rgb(251, 251, 251); text-decoration-thickness: initial; text-decoration-style: initial; text-decoration-color: initial; float: none; display: inline !important;&quot;&gt;adaptation_coef_ready&amp;nbsp;= 1&lt;/span&gt;" style="text;whiteSpace=wrap;html=1;" parent="1" vertex="1">
          <mxGeometry x="260" y="760" width="180" height="40" as="geometry" />
        </mxCell>
        <mxCell id="2Ivm5YJjxfY_jZ8BfFTa-31" style="edgeStyle=orthogonalEdgeStyle;rounded=0;orthogonalLoop=1;jettySize=auto;html=1;exitX=0.5;exitY=0;exitDx=0;exitDy=0;entryX=0;entryY=0.5;entryDx=0;entryDy=0;" parent="1" source="2Ivm5YJjxfY_jZ8BfFTa-33" target="2Ivm5YJjxfY_jZ8BfFTa-5" edge="1">
          <mxGeometry relative="1" as="geometry" />
        </mxCell>
        <mxCell id="2Ivm5YJjxfY_jZ8BfFTa-32" style="edgeStyle=orthogonalEdgeStyle;rounded=0;orthogonalLoop=1;jettySize=auto;html=1;exitX=0.5;exitY=0;exitDx=0;exitDy=0;entryX=0;entryY=0.5;entryDx=0;entryDy=0;" parent="1" source="2Ivm5YJjxfY_jZ8BfFTa-33" target="2Ivm5YJjxfY_jZ8BfFTa-2" edge="1">
          <mxGeometry relative="1" as="geometry" />
        </mxCell>
        <mxCell id="2Ivm5YJjxfY_jZ8BfFTa-33" value="ADAPTATION_WAIT" style="ellipse;whiteSpace=wrap;html=1;" parent="1" vertex="1">
          <mxGeometry x="40" y="600" width="150" height="80" as="geometry" />
        </mxCell>
        <mxCell id="2Ivm5YJjxfY_jZ8BfFTa-37" value="&lt;span style=&quot;color: rgb(0, 0, 0); font-family: Helvetica; font-size: 12px; font-style: normal; font-variant-ligatures: normal; font-variant-caps: normal; font-weight: 400; letter-spacing: normal; orphans: 2; text-align: center; text-indent: 0px; text-transform: none; widows: 2; word-spacing: 0px; -webkit-text-stroke-width: 0px; background-color: rgb(251, 251, 251); text-decoration-thickness: initial; text-decoration-style: initial; text-decoration-color: initial; float: none; display: inline !important;&quot;&gt;datapath_ready = 1 &amp;amp;&amp;amp;&lt;br&gt;iter_counter &amp;lt; x_count - 1&lt;br&gt;&lt;/span&gt;" style="text;whiteSpace=wrap;html=1;" parent="1" vertex="1">
          <mxGeometry x="150" y="200" width="140" height="40" as="geometry" />
        </mxCell>
        <mxCell id="2Ivm5YJjxfY_jZ8BfFTa-38" value="datapath_ready = 1 &amp;amp;&amp;amp;&lt;br style=&quot;border-color: var(--border-color);&quot;&gt;&lt;span style=&quot;&quot;&gt;iter_counter = x_count - 1&lt;/span&gt;" style="text;html=1;align=center;verticalAlign=middle;resizable=0;points=[];autosize=1;strokeColor=none;fillColor=none;" parent="1" vertex="1">
          <mxGeometry x="90" y="75" width="160" height="40" as="geometry" />
        </mxCell>
        <mxCell id="2Ivm5YJjxfY_jZ8BfFTa-39" value="" style="curved=1;endArrow=classic;html=1;rounded=0;exitX=0.953;exitY=0.778;exitDx=0;exitDy=0;exitPerimeter=0;entryX=0.773;entryY=0.016;entryDx=0;entryDy=0;entryPerimeter=0;" parent="1" source="2Ivm5YJjxfY_jZ8BfFTa-33" target="2Ivm5YJjxfY_jZ8BfFTa-33" edge="1">
          <mxGeometry width="50" height="50" relative="1" as="geometry">
            <mxPoint x="210" y="660" as="sourcePoint" />
            <mxPoint x="260" y="610" as="targetPoint" />
            <Array as="points">
              <mxPoint x="260" y="660" />
              <mxPoint x="200" y="580" />
            </Array>
          </mxGeometry>
        </mxCell>
        <mxCell id="2Ivm5YJjxfY_jZ8BfFTa-40" value="&lt;span style=&quot;color: rgb(0, 0, 0); font-family: Helvetica; font-size: 12px; font-style: normal; font-variant-ligatures: normal; font-variant-caps: normal; font-weight: 400; letter-spacing: normal; orphans: 2; text-align: center; text-indent: 0px; text-transform: none; widows: 2; word-spacing: 0px; -webkit-text-stroke-width: 0px; background-color: rgb(251, 251, 251); text-decoration-thickness: initial; text-decoration-style: initial; text-decoration-color: initial; float: none; display: inline !important;&quot;&gt;adaptation_finished = 0&lt;/span&gt;" style="text;whiteSpace=wrap;html=1;" parent="1" vertex="1">
          <mxGeometry x="145" y="560" width="180" height="40" as="geometry" />
        </mxCell>
        <mxCell id="2Ivm5YJjxfY_jZ8BfFTa-41" value="&lt;span style=&quot;color: rgb(0, 0, 0); font-family: Helvetica; font-size: 12px; font-style: normal; font-variant-ligatures: normal; font-variant-caps: normal; font-weight: 400; letter-spacing: normal; orphans: 2; text-align: center; text-indent: 0px; text-transform: none; widows: 2; word-spacing: 0px; -webkit-text-stroke-width: 0px; background-color: rgb(251, 251, 251); text-decoration-thickness: initial; text-decoration-style: initial; text-decoration-color: initial; float: none; display: inline !important;&quot;&gt;out_written&amp;nbsp;= 1 &amp;amp;&amp;amp;&lt;/span&gt;&lt;br style=&quot;border-color: var(--border-color); color: rgb(0, 0, 0); font-family: Helvetica; font-size: 12px; font-style: normal; font-variant-ligatures: normal; font-variant-caps: normal; font-weight: 400; letter-spacing: normal; orphans: 2; text-align: center; text-indent: 0px; text-transform: none; widows: 2; word-spacing: 0px; -webkit-text-stroke-width: 0px; text-decoration-thickness: initial; text-decoration-style: initial; text-decoration-color: initial;&quot;&gt;&lt;span style=&quot;color: rgb(0, 0, 0); font-family: Helvetica; font-size: 12px; font-style: normal; font-variant-ligatures: normal; font-variant-caps: normal; font-weight: 400; letter-spacing: normal; orphans: 2; text-align: center; text-indent: 0px; text-transform: none; widows: 2; word-spacing: 0px; -webkit-text-stroke-width: 0px; background-color: rgb(251, 251, 251); text-decoration-thickness: initial; text-decoration-style: initial; text-decoration-color: initial; float: none; display: inline !important;&quot;&gt;operation = fir &amp;amp;&amp;amp; perform_next_iter = 1&lt;/span&gt;" style="text;whiteSpace=wrap;html=1;" parent="1" vertex="1">
          <mxGeometry x="325" y="620" width="160" height="50" as="geometry" />
        </mxCell>
        <mxCell id="h3-NuvX5yg6WDQJMvnr--1" value="" style="endArrow=classic;html=1;rounded=0;exitX=0.09;exitY=0.858;exitDx=0;exitDy=0;exitPerimeter=0;entryX=0.047;entryY=0.73;entryDx=0;entryDy=0;entryPerimeter=0;" edge="1" parent="1" source="2Ivm5YJjxfY_jZ8BfFTa-16" target="2Ivm5YJjxfY_jZ8BfFTa-5">
          <mxGeometry width="50" height="50" relative="1" as="geometry">
            <mxPoint x="260" y="450" as="sourcePoint" />
            <mxPoint x="310" y="400" as="targetPoint" />
            <Array as="points">
              <mxPoint x="340" y="614" />
              <mxPoint x="340" y="258" />
            </Array>
          </mxGeometry>
        </mxCell>
        <mxCell id="h3-NuvX5yg6WDQJMvnr--2" value="" style="endArrow=classic;html=1;rounded=0;exitX=0;exitY=0;exitDx=0;exitDy=0;entryX=0.407;entryY=0.99;entryDx=0;entryDy=0;entryPerimeter=0;" edge="1" parent="1" source="2Ivm5YJjxfY_jZ8BfFTa-16" target="2Ivm5YJjxfY_jZ8BfFTa-2">
          <mxGeometry width="50" height="50" relative="1" as="geometry">
            <mxPoint x="365" y="525" as="sourcePoint" />
            <mxPoint x="220" y="370" as="targetPoint" />
            <Array as="points">
              <mxPoint x="320" y="557" />
            </Array>
          </mxGeometry>
        </mxCell>
        <mxCell id="h3-NuvX5yg6WDQJMvnr--3" value="&lt;span style=&quot;color: rgb(0, 0, 0); font-family: Helvetica; font-size: 12px; font-style: normal; font-variant-ligatures: normal; font-variant-caps: normal; font-weight: 400; letter-spacing: normal; orphans: 2; text-align: center; text-indent: 0px; text-transform: none; widows: 2; word-spacing: 0px; -webkit-text-stroke-width: 0px; background-color: rgb(251, 251, 251); text-decoration-thickness: initial; text-decoration-style: initial; text-decoration-color: initial; float: none; display: inline !important;&quot;&gt;out_written&amp;nbsp;= 1 &amp;amp;&amp;amp;&lt;/span&gt;&lt;br style=&quot;border-color: var(--border-color); color: rgb(0, 0, 0); font-family: Helvetica; font-size: 12px; font-style: normal; font-variant-ligatures: normal; font-variant-caps: normal; font-weight: 400; letter-spacing: normal; orphans: 2; text-align: center; text-indent: 0px; text-transform: none; widows: 2; word-spacing: 0px; -webkit-text-stroke-width: 0px; text-decoration-thickness: initial; text-decoration-style: initial; text-decoration-color: initial;&quot;&gt;&lt;span style=&quot;color: rgb(0, 0, 0); font-family: Helvetica; font-size: 12px; font-style: normal; font-variant-ligatures: normal; font-variant-caps: normal; font-weight: 400; letter-spacing: normal; orphans: 2; text-align: center; text-indent: 0px; text-transform: none; widows: 2; word-spacing: 0px; -webkit-text-stroke-width: 0px; background-color: rgb(251, 251, 251); text-decoration-thickness: initial; text-decoration-style: initial; text-decoration-color: initial; float: none; display: inline !important;&quot;&gt;operation = fir &amp;amp;&amp;amp; perform_next_iter = 0&lt;/span&gt;" style="text;whiteSpace=wrap;html=1;" vertex="1" parent="1">
          <mxGeometry x="180" y="470" width="160" height="50" as="geometry" />
        </mxCell>
      </root>
    </mxGraphModel>
  </diagram>
</mxfile>
